<?xml version="1.0" standalone="no"?>
<!DOCTYPE svg PUBLIC "-//W3C//DTD SVG 20010904//EN"
 "http://www.w3.org/TR/2001/REC-SVG-20010904/DTD/svg10.dtd">
<svg version="1.0" xmlns="http://www.w3.org/2000/svg"
 width="1024.000000pt" height="768.000000pt" viewBox="0 0 1024.000000 768.000000"
 preserveAspectRatio="xMidYMid meet">
<metadata>
Created by potrace 1.16, written by Peter Selinger 2001-2019
</metadata>
<g transform="translate(0.000000,768.000000) scale(0.100000,-0.100000)"
fill="#000000" stroke="none">
<path d="M0 3840 l0 -3840 5120 0 5120 0 0 3840 0 3840 -5120 0 -5120 0 0
-3840z m5293 644 c136 -19 317 -71 472 -136 195 -82 234 -94 370 -117 72 -12
134 -26 138 -30 16 -16 -77 -21 -206 -11 -159 13 -177 17 -303 76 -140 66
-312 120 -435 138 -199 30 -549 18 -859 -29 -220 -33 -421 -73 -435 -86 -6 -6
-3 -22 9 -43 25 -48 83 -70 262 -102 159 -28 199 -45 149 -64 -55 -21 -871 28
-1033 62 -62 13 -83 32 -60 54 11 11 51 18 144 24 71 5 130 9 132 10 1 0 2 6
2 13 0 22 30 42 115 74 161 63 507 140 735 164 263 27 619 29 803 3z m26 -349
c4 -5 -50 -112 -86 -167 -18 -29 -30 -38 -52 -38 l-28 0 18 88 c29 134 30 136
92 128 28 -4 53 -9 56 -11z m764 -5 c9 -8 -77 -180 -96 -192 -19 -12 -57 -9
-57 4 0 23 43 183 52 194 9 13 86 8 101 -6z m-1411 -165 c-2 -119 1 -175 8
-175 6 0 29 17 53 38 23 21 68 60 100 85 57 47 58 47 133 47 l75 0 -58 -49
c-32 -26 -78 -66 -102 -88 l-45 -39 98 -107 c53 -59 109 -116 123 -127 l26
-20 -83 0 -82 0 -85 90 c-47 50 -89 90 -93 90 -5 0 -22 -12 -39 -26 -29 -24
-31 -31 -31 -90 l0 -64 -60 0 -60 0 0 305 0 305 63 0 62 0 -3 -175z m-1435
146 c126 -8 149 -12 199 -36 103 -51 141 -153 93 -251 -36 -74 -148 -113 -331
-114 l-68 0 0 -85 0 -85 -42 0 c-24 0 -53 -3 -65 -6 l-23 -6 0 289 c0 159 3
293 7 296 8 9 50 8 230 -2z m3362 -32 c52 -18 121 -62 121 -78 0 -4 -20 -21
-44 -38 -37 -26 -47 -29 -56 -18 -22 27 -101 56 -155 56 -72 1 -134 -29 -171
-83 -25 -36 -29 -50 -29 -114 0 -66 3 -76 31 -110 68 -84 172 -103 282 -50
l60 29 41 -33 41 -33 -27 -19 c-53 -36 -85 -50 -151 -63 -156 -33 -317 34
-385 160 -18 32 -22 57 -22 125 0 75 4 91 30 138 76 138 256 193 434 131z
m-2667 -134 c25 -9 58 -29 74 -46 l29 -30 3 -171 3 -171 -47 6 c-28 3 -53 12
-60 21 -11 15 -15 15 -50 -6 -31 -18 -53 -23 -109 -22 -97 1 -153 33 -176 101
-9 27 -7 40 8 70 29 60 68 76 200 81 l113 5 -7 26 c-9 39 -20 48 -72 61 -41
10 -60 9 -117 -6 -65 -16 -68 -16 -81 2 -38 50 -37 52 29 73 78 25 197 27 260
6z m358 -13 c0 -13 3 -22 8 -20 44 23 87 39 121 44 l41 7 0 -51 0 -50 -52 -7
c-38 -5 -60 -15 -80 -35 -28 -28 -28 -29 -28 -159 l0 -131 -60 0 -60 0 0 209
c0 131 4 211 10 213 6 2 30 3 55 3 40 0 45 -2 45 -23z m1197 7 c4 -14 11 -18
22 -13 94 40 183 44 254 10 73 -36 82 -60 85 -243 l4 -163 -61 0 -61 0 0 126
c0 139 -12 183 -56 203 -58 26 -132 3 -159 -49 -11 -21 -15 -62 -15 -155 l0
-125 -60 0 -60 0 0 209 c0 229 -3 219 63 220 31 1 40 -3 44 -20z m1624 6 c97
-33 159 -113 159 -205 0 -132 -96 -220 -241 -220 -139 0 -234 59 -265 166 -18
63 -13 100 22 161 53 93 206 138 325 98z"/>
<path d="M3143 4013 c-9 -3 -13 -34 -13 -104 l0 -99 88 0 c149 0 192 24 192
105 0 52 -27 80 -90 94 -46 11 -155 13 -177 4z"/>
<path d="M3825 3710 c-44 -3 -86 -9 -92 -13 -21 -13 -15 -64 9 -81 26 -19 96
-21 132 -5 28 13 52 70 39 91 -6 10 -29 12 -88 8z"/>
<path d="M6953 3855 c-86 -37 -96 -180 -15 -227 49 -28 87 -31 137 -9 35 15
49 29 61 58 51 121 -62 231 -183 178z"/>
</g>
</svg>
